<svg height="310" viewBox="0 0 310 310" width="310" xmlns="http://www.w3.org/2000/svg"><g fill="#3c3c3b" fill-rule="evenodd" transform="translate(1 123)"><path d="m294.045119 1.6362094-16.442495 26.5015839-.34265-.5455034-16.070755-25.9560805h-13.982772v61.013906h12.467155v-41.0587919l17.757484 27.0470872 17.92945-27.3056644v41.3173691h12.63955v-61.013906z"/><g transform="translate(183.135135 .284349)"><path d="m18.4974071 63.5704698h-2.8678222v-1.5703624h1.3038666v-1.3092081h1.5639556z"/><path d="m8.67614264 63.5704698h3.47654996v-1.5703624h-3.47654996z"/><path d="m5.20228764 63.5704698h-2.86782222v-2.8795705h1.56352778v1.3092081h1.30429444z"/><path d="m2.33433709 11.8962685h1.56395555v-4.43575843h-1.56395555zm0 8.8719463h1.56395555v-4.4357584h-1.56395555zm0 8.8715167h1.56395555v-4.4357583h-1.56395555zm0 8.8719464h1.56395555v-4.4357584h-1.56395555zm0 8.8715167h1.56395555v-4.4357584h-1.56395555zm0 8.8719463h1.56395555v-4.4357583h-1.56395555z"/><path d="m3.89816431 3.02475168h-1.56395556v-2.87957047h2.86825v1.56993288h-1.30429444z"/><path d="m8.67913709 1.71511409h3.47655001v-1.57036241h-3.47655001z"/><path d="m18.4974071 3.02475168h-1.5639556v-1.30963759h-1.3038666v-1.56993288h2.8678222z"/><path d="m16.9335371 11.8962685h1.5639555v-4.43575843h-1.5639555zm0 8.8719463h1.5639555v-4.4357584h-1.5639555zm0 8.8715167h1.5639555v-4.4357583h-1.5639555zm0 8.8719464h1.5639555v-4.4357584h-1.5639555zm0 8.8715167h1.5639555v-4.4357584h-1.5639555zm0 8.8719463h1.5639555v-4.4357583h-1.5639555z"/></g><path d="m116.644477 31.2617664c6.607027 0 10.392433-3.5328859 10.392433-8.7482416v-.1795436c0-5.8282953-4.051911-8.8341476-10.653378-8.8341476h-13.461311v17.7619328zm-27.2785337-30.04735566h28.1610387c7.833039 0 13.903634 2.21379866 17.952978 6.27930201 3.43035 3.44225505 5.279206 8.30711405 5.279206 14.13626845v.1739597c0 9.9848591-5.368612 16.2628725-13.199939 19.1759463l15.050077 22.0898792h-15.841894l-13.196089-19.790604h-10.6491v19.790604h-13.5562777z"/><path d="m0 1.63638121v11.71457719h18.73025v49.2993288h12.7246778v-49.2993288h18.7580555v-11.71457719z"/></g></svg>