<svg height="18" viewBox="0 0 79 18" width="79" xmlns="http://www.w3.org/2000/svg"><g fill="#3c3c3b" fill-rule="evenodd" transform="translate(1 1)"><path d="m73.5112797.40905235-4.1106236 6.62539597-.0856625-.13637584-4.0176889-6.48902013h-3.495693v15.25347655h3.1167889v-10.26469803l4.4393708 6.76177183 4.4823625-6.82641612v10.32934232h3.1598875v-15.25347655z"/><g transform="translate(45.783784 .071087)"><path d="m4.62435177 15.8926174h-.71695555v-.3925906h.32596666v-.327302h.39098889z"/><path d="m2.16903566 15.8926174h.8691375v-.3925906h-.8691375z"/><path d="m1.30057191 15.8926174h-.71695555v-.7198926h.39088194v.327302h.32607361z"/><path d="m.58358427 2.97406711h.56363334v-1.10893959h-.56363334zm0 2.21798658h.56363334v-1.1089396h-.56363334zm0 2.2178792h.56363334v-1.1089396h-.56363334zm0 2.21798657h.56363334v-1.10893959h-.56363334zm0 2.21787924h.56363334v-1.1089396h-.56363334zm0 2.2179865h.56363334v-1.1089396h-.56363334z"/><path d="m.97454108.75618792h-.39098889v-.71989262h.7170625v.39248322h-.32607361z"/><path d="m2.16978427.42877852h.8691375v-.3925906h-.8691375z"/><path d="m4.62435177.75618792h-.39098889v-.3274094h-.32596666v-.39248322h.71695555z"/><path d="m4.23338427 2.97406711h.56363334v-1.10893959h-.56363334zm0 2.21798658h.56363334v-1.1089396h-.56363334zm0 2.2178792h.56363334v-1.1089396h-.56363334zm0 2.21798657h.56363334v-1.10893959h-.56363334zm0 2.21787924h.56363334v-1.1089396h-.56363334zm0 2.2179865h.56363334v-1.1089396h-.56363334z"/></g><path d="m29.1611192 7.81544161c1.6517569 0 2.5981083-.88322148 2.5981083-2.1870604v-.04488591c0-1.45707382-1.0129778-2.20853691-2.6633444-2.20853691h-3.3653278v4.44048322zm-6.8196334-7.51183892h7.0402598c1.9582597 0 3.4759083.55344966 4.4882444 1.5698255.8575875.86056376 1.3198014 2.07677852 1.3198014 3.53406711v.04348993c0 2.49621477-1.3421528 4.06571813-3.2999847 4.79398657l3.7625194 5.5224698h-3.9604736l-3.2990222-4.947651h-2.662275v4.947651h-3.3890695z"/><path d="m0 .4090953v2.9286443h4.6825625v12.3248322h3.18116944v-12.3248322h4.68951386v-2.9286443z"/></g></svg>